<svg xmlns="http://www.w3.org/2000/svg" width="651" height="651" viewBox="0 0 651 651">
  <g id="Group_8" data-name="Group 8" transform="translate(-2315 -3421)">
    <g id="dashboard" transform="translate(2383 3490.947)">
      <g id="Group_7" data-name="Group 7">
        <g id="Group_6" data-name="Group 6">
          <path id="Path_17" data-name="Path 17" d="M128.686,37.216a12.578,12.578,0,0,0-16.486.128L77.853,68.081V64.053a8.533,8.533,0,1,0-17.066,0V83.364L46.561,96.1a8.533,8.533,0,0,0,11.383,12.715L120.519,52.8l62.575,56.013A8.533,8.533,0,1,0,194.477,96.1Z"/>
          <path id="Path_18" data-name="Path 18" d="M171.72,119.52a8.533,8.533,0,0,0-8.533,8.533v59.733H77.853V128.053a8.533,8.533,0,0,0-17.066,0V193.2a11.8,11.8,0,0,0,11.947,11.648h95.573a11.828,11.828,0,0,0,11.947-11.674V128.053A8.535,8.535,0,0,0,171.72,119.52Z"/>
          <path id="Path_19" data-name="Path 19" d="M120.52,221.92a59.733,59.733,0,1,0,59.733,59.733A59.733,59.733,0,0,0,120.52,221.92ZM77.853,281.653a42.742,42.742,0,0,1,34.133-41.813v36.975L80.413,295.75A42.071,42.071,0,0,1,77.853,281.653Zm11.354,28.729,29.99-17.994L144.012,317.2A42.258,42.258,0,0,1,89.207,310.382Zm66.871-5.245L129.053,278.12V239.84a42.589,42.589,0,0,1,27.025,65.3Z"/>
          <path id="Path_20" data-name="Path 20" d="M461.853,153.653v-29.21A13.466,13.466,0,0,0,448.4,110.986H424.11a13.466,13.466,0,0,0-13.457,13.457v29.21H393.586v-53.5a14.78,14.78,0,0,0-14.763-14.763H357.148a14.781,14.781,0,0,0-14.762,14.763v53.5H325.32V59.786a17.067,17.067,0,0,0-17.067-17.067H291.186a17.067,17.067,0,0,0-17.067,17.067v93.867h-8.533a8.533,8.533,0,0,1-8.533-8.533V42.72a8.533,8.533,0,0,0-17.066,0v102.4a25.6,25.6,0,0,0,25.6,25.6H461.854a8.534,8.534,0,1,0,0-17.067Zm-153.6,0H291.186V59.786h17.067Zm68.267,0H359.453v-51.2H376.52Zm68.266,0H427.72v-25.6h17.067v25.6Z"/>
          <path id="Path_21" data-name="Path 21" d="M461.853,324.32H265.586a8.533,8.533,0,0,1-8.533-8.533V302.253l28.1-28.1a8.712,8.712,0,0,1,12.066,0l10,10a25.6,25.6,0,0,0,36.2,0l35.6-35.6a8.712,8.712,0,0,1,12.066,0l10,10.01a25.65,25.65,0,0,0,36.2,0l30.6-30.6A8.533,8.533,0,0,0,455.819,215.9l-30.6,30.592a8.534,8.534,0,0,1-12.066,0l-10-10a26.214,26.214,0,0,0-36.2,0l-35.6,35.6a8.534,8.534,0,0,1-12.066,0l-9.992-10a26.223,26.223,0,0,0-36.207,0l-16.034,16.034V213.387a8.533,8.533,0,0,0-17.066,0v102.4a25.6,25.6,0,0,0,25.6,25.6H461.854a8.533,8.533,0,1,0,0-17.067Z"/>
          <path id="Path_22" data-name="Path 22" d="M513.053,396.46V47.37A45.225,45.225,0,0,0,470.386.053H43.72A45.227,45.227,0,0,0,1.053,47.37V396.46A45.227,45.227,0,0,0,43.72,443.786H180.253v17.067H146.12a34.133,34.133,0,0,0-34.133,34.133v8.533a8.533,8.533,0,0,0,8.533,8.533H393.587a8.533,8.533,0,0,0,8.533-8.533v-8.533a34.133,34.133,0,0,0-34.133-34.133H333.854V443.786H470.387A45.226,45.226,0,0,0,513.053,396.46ZM367.986,477.92a17.067,17.067,0,0,1,17.067,17.067h-256A17.067,17.067,0,0,1,146.12,477.92ZM197.32,460.853V443.786H316.787v17.067ZM470.386,426.72H43.72a28.263,28.263,0,0,1-25.6-30.259V375.52H495.987v20.941A28.263,28.263,0,0,1,470.386,426.72Zm25.6-379.35V358.453H18.12V47.37a28.255,28.255,0,0,1,25.6-30.251H470.387A28.254,28.254,0,0,1,495.986,47.37Z"/>
        </g>
      </g>
    </g>
    <rect id="Rectangle_8" data-name="Rectangle 8" width="651" height="651" transform="translate(2315 3421)" fill="none"/>
  </g>
</svg>
